<mxfile host="app.diagrams.net" modified="2023-07-28T11:08:47.031Z" agent="Mozilla/5.0 (Windows NT 10.0; Win64; x64) AppleWebKit/537.36 (KHTML, like Gecko) Chrome/115.0.0.0 Safari/537.36" version="21.6.5" etag="Hj3JU4UQzJQpGsmIuo77" type="github">
  <diagram name="Page-1" id="V_JDFQdfA9WgfmQG18fs">
    <mxGraphModel>
      <root>
        <mxCell id="0" />
        <mxCell id="1" parent="0" />
      </root>
    </mxGraphModel>
  </diagram>
</mxfile>
